# xmcd
#
# Track frame offsets:
#	150
#	15824
#	28997
#	47907
#	64629
#	78973
#	92050
#	105763
#	119712
#	138916
#	157810
#	182746
#
# Disc length: 2944
#
# Revision: 0
# Processed by: cddbd v1.5.2PL0 Copyright (c) Steve Scherf et al.
# Submitted via: Broken Cross Disk Manager 3.81.2155
#
DISCID=8b0b7e0c
DTITLE=Livchich, Leonardo y Del Gaudio, Fernando - Tres A.M.
DYEAR=1997
DGENRE=other
TTITLE0=Libre
TTITLE1=Hasta que llegaste tu
TTITLE2=Adios Paul, John, George y Ringo
TTITLE3=Miradas
TTITLE4=testigos del dolor
TTITLE5=Donde nace tu voz
TTITLE6=Luz y sombras
TTITLE7=Mas que loco
TTITLE8=Libre (version JAm)
TTITLE9=Adios  Paul, John, George y Ringo (Instrumental Bonus Track)
TTITLE10=Luz y sombras (instrumental Bonus Track)
TTITLE11=Video clip libre
EXTD=
EXTT0=
EXTT1=
EXTT2=
EXTT3=
EXTT4=
EXTT5=
EXTT6=
EXTT7=
EXTT8=
EXTT9=
EXTT10=
EXTT11=
PLAYORDER=
